HIERARCHY
ROOT root
{
	OFFSET 0.000000 0.000000 0.000000
	CHANNELS 6 Xposition Yposition Zposition Zrotation Yrotation Xrotation
	JOINT lhip
	{
		OFFSET 0.058581 -0.082280 -0.017664
		CHANNELS 3 Zrotation Yrotation Xrotation
		JOINT lknee
		{
			OFFSET 0.043451 -0.386469 0.008037
			CHANNELS 3 Zrotation Yrotation Xrotation
			JOINT lankle
			{
				OFFSET -0.014790 -0.426874 -0.037428
				CHANNELS 3 Zrotation Yrotation Xrotation
				JOINT ltoe
				{
					OFFSET 0.041054 -0.060286 0.122042
					CHANNELS 3 Zrotation Yrotation Xrotation
					End Site
					{
						OFFSET 0.000000 0.000000 0.000000
					}
				}
			}
		}
	}
	JOINT rhip
	{
		OFFSET -0.060310 -0.090513 -0.013543
		CHANNELS 3 Zrotation Yrotation Xrotation
		JOINT rknee
		{
			OFFSET -0.043257 -0.383688 -0.004843
			CHANNELS 3 Zrotation Yrotation Xrotation
			JOINT rankle
			{
				OFFSET 0.019056 -0.420046 -0.034562
				CHANNELS 3 Zrotation Yrotation Xrotation
				JOINT rtoe
				{
					OFFSET -0.034840 -0.062106 0.130323
					CHANNELS 3 Zrotation Yrotation Xrotation
					End Site
					{
						OFFSET 0.000000 0.000000 0.000000
					}
				}
			}
		}
	}
	JOINT lowerback
	{
		OFFSET 0.004439 0.124404 -0.038385
		CHANNELS 3 Zrotation Yrotation Xrotation
		JOINT upperback
		{
			OFFSET 0.004488 0.137956 0.026820
			CHANNELS 3 Zrotation Yrotation Xrotation
			JOINT chest
			{
				OFFSET -0.002265 0.056032 0.002855
				CHANNELS 3 Zrotation Yrotation Xrotation
				JOINT lowerneck
				{
					OFFSET -0.013390 0.211636 -0.033468
					CHANNELS 3 Zrotation Yrotation Xrotation
					JOINT upperneck
					{
						OFFSET 0.010113 0.088937 0.050410
						CHANNELS 3 Zrotation Yrotation Xrotation
						End Site
						{
							OFFSET 0.000000 0.000000 0.000000
						}
					}
				}
				JOINT lclavicle
				{
					OFFSET 0.071702 0.114000 -0.018898
					CHANNELS 3 Zrotation Yrotation Xrotation
					JOINT lshoulder
					{
						OFFSET 0.122921 0.045205 -0.019046
						CHANNELS 3 Zrotation Yrotation Xrotation
						JOINT lelbow
						{
							OFFSET 0.255332 -0.015649 -0.022946
							CHANNELS 3 Zrotation Yrotation Xrotation
							JOINT lwrist
							{
								OFFSET 0.265709 0.012698 -0.007375
								CHANNELS 3 Zrotation Yrotation Xrotation
								End Site
								{
									OFFSET 0.000000 0.000000 0.000000
								}
							}
						}
					}
				}
				JOINT rclavicle
				{
					OFFSET -0.082954 0.112472 -0.023707
					CHANNELS 3 Zrotation Yrotation Xrotation
					JOINT rshoulder
					{
						OFFSET -0.113228 0.046853 -0.008472
						CHANNELS 3 Zrotation Yrotation Xrotation
						JOINT relbow
						{
							OFFSET -0.260127 -0.014369 -0.031269
							CHANNELS 3 Zrotation Yrotation Xrotation
							JOINT rwrist
							{
								OFFSET -0.269108 0.006794 -0.006027
								CHANNELS 3 Zrotation Yrotation Xrotation
								End Site
								{
									OFFSET 0.000000 0.000000 0.000000
								}
							}
						}
					}
				}
			}
		}
	}
}
MOTION
Frames: 15
Frame Time: 0.033333
-0.432113 0.561583 0.967254 91.128028 -0.579407 84.012882 13.829096 3.815545 -5.059825 -7.903415 -17.199623 19.833529 -5.772246 17.236461 -20.681577 0.000000 -0.000000 0.000000 -1.521097 -6.732591 0.717514 -1.077118 3.861392 19.544893 2.323356 -23.105453 -30.608324 0.000000 -0.000000 0.000000 0.678446 2.463753 1.658477 -2.619413 -3.539222 -6.853429 2.893050 0.516876 0.256423 -1.449665 1.549505 3.933392 5.188720 -2.212288 -21.349429 26.257129 -14.856329 -21.222914 2.507988 -18.193663 -24.782184 14.385598 -7.073827 -16.703410 -17.648882 -11.726952 20.989072 -40.253636 17.514113 -24.811881 -12.969345 19.012452 -31.507970 -9.851228 11.211112 -5.801865 17.930736 14.695925 -4.629742 
-0.433474 0.561043 0.967799 91.120651 -0.702191 84.150519 13.563065 3.853657 -5.028856 -7.445373 -17.349115 19.301885 -5.781170 17.156573 -20.612705 0.000000 -0.000000 0.000000 -1.432239 -6.805438 0.556529 -1.446483 3.838795 19.332890 2.024667 -22.887266 -30.484651 0.000000 -0.000000 0.000000 0.678146 2.479967 1.495209 -2.770888 -3.477923 -6.417042 2.906817 0.670500 -0.180398 -1.457195 1.322644 3.940592 5.546900 -2.643955 -21.302574 25.767559 -15.292474 -21.001785 2.841433 -17.925585 -24.862755 14.241501 -6.594269 -17.072035 -17.167676 -11.937181 21.058717 -40.214018 17.724553 -24.398475 -11.777491 18.586305 -30.815919 -9.654730 9.761917 -5.611436 17.392850 14.883091 -5.030994 
-0.435025 0.560726 0.968078 91.133828 -0.789061 84.262440 13.417874 3.950877 -5.035459 -7.000602 -17.253363 18.767140 -5.838327 17.059282 -20.416299 0.000000 -0.000000 0.000000 -1.492064 -6.824343 0.360622 -1.405770 3.707685 19.231084 2.015249 -22.797895 -30.260369 0.000000 -0.000000 0.000000 0.718534 2.427955 1.710936 -2.833859 -3.379217 -6.171752 2.856676 0.711454 -0.611810 -1.190011 0.867436 3.035075 5.650707 -3.371346 -21.160181 25.443534 -15.231325 -20.874013 2.994424 -18.014466 -24.930770 14.359069 -5.995515 -17.574004 -17.776311 -11.384353 21.670007 -40.036771 17.979859 -24.038809 -11.309818 18.400191 -30.338023 -8.941788 8.243733 -6.100993 18.024234 14.868674 -5.312304 
-0.436846 0.559475 0.968602 90.933501 -0.966503 84.751866 13.222349 3.777985 -5.016953 -6.417593 -17.153723 17.483184 -5.871564 17.357678 -20.109240 0.000000 -0.000000 0.000000 -1.583514 -6.657489 -0.427948 -1.087912 3.689468 19.387654 1.739949 -22.858448 -30.122587 0.000000 -0.000000 0.000000 0.732095 2.573765 1.332231 -3.090984 -3.103403 -5.657650 2.634589 0.901801 -1.014746 -0.762319 -0.294422 2.464623 6.247976 -4.209107 -21.958747 25.047324 -15.391575 -21.110692 3.225989 -18.189637 -24.731547 14.320655 -5.826259 -17.568349 -17.461884 -11.634774 22.066085 -39.849041 18.154561 -24.366202 -9.857539 18.638250 -29.616011 -8.340012 5.686721 -6.970438 17.168622 14.922522 -6.155910 
-0.438372 0.558569 0.968970 90.745128 -0.950576 85.008921 13.241366 3.975162 -5.085076 -6.077550 -17.079464 16.955358 -5.976668 17.306132 -19.936474 0.000000 -0.000000 0.000000 -1.446727 -6.660967 -0.812737 -1.084636 3.602936 19.316306 1.588104 -22.645477 -29.928543 0.000000 -0.000000 0.000000 0.969595 2.576011 1.381335 -3.301465 -2.858490 -5.355758 2.466316 1.162977 -1.440410 -0.349926 -1.108627 1.587676 6.618177 -5.336095 -22.131156 24.753402 -15.524726 -21.185975 3.405750 -18.439305 -24.606003 14.310986 -5.656809 -17.922446 -17.658174 -11.700917 22.093805 -39.704923 18.514925 -24.023826 -9.091498 18.068516 -29.199726 -7.671457 4.558972 -8.067294 17.490051 15.539456 -7.955840 
-0.440764 0.556582 0.969554 90.703678 -1.026708 85.326526 13.140372 4.118040 -5.115923 -5.366029 -16.930610 15.883537 -5.914409 17.217662 -19.202294 0.000000 -0.000000 0.000000 -1.264937 -6.498048 -1.305271 -1.067330 3.505231 19.198042 1.416906 -22.580796 -29.750627 0.000000 -0.000000 0.000000 0.882058 2.551582 1.300702 -3.435259 -2.645894 -4.658697 2.386605 1.407485 -1.942331 -0.207119 -1.743928 0.421210 7.067715 -6.612224 -22.579703 24.303189 -15.634875 -21.392438 3.689236 -18.756049 -24.576155 14.291444 -5.376177 -18.345370 -18.209054 -11.432530 22.842860 -38.935166 19.060117 -23.938876 -8.207290 17.774179 -28.674745 -7.136010 3.106751 -10.197055 18.601670 15.940723 -10.115042 
-0.443339 0.554077 0.970048 90.577507 -1.170668 85.511988 13.071556 4.057798 -4.908595 -4.701463 -16.746885 14.710063 -6.281263 17.165882 -18.823997 0.000000 -0.000000 0.000000 -1.196989 -6.291874 -1.713425 -1.089312 3.145928 19.177249 1.283486 -22.336190 -29.664283 0.000000 -0.000000 0.000000 0.716258 2.525210 1.535966 -3.424730 -2.399093 -4.105177 2.368199 1.500364 -2.100702 -0.201113 -1.870805 -0.918410 7.537152 -7.904488 -23.752432 23.999566 -15.053691 -21.307188 3.804886 -18.973749 -24.354529 14.053767 -5.173391 -19.265702 -18.662249 -10.933956 23.535344 -37.847932 19.509371 -23.376692 -7.544739 17.214180 -28.148531 -6.916724 2.986333 -13.530252 20.012014 16.937633 -13.105252 
-0.445414 0.551198 0.970785 90.239743 -1.229630 85.851191 13.001970 4.320138 -4.666275 -3.812468 -16.502940 13.266547 -6.281598 17.030017 -17.918398 0.000000 -0.000000 0.000000 -0.916882 -5.998550 -2.280184 -1.118476 3.187307 19.251577 1.294673 -22.242762 -29.619828 0.000000 -0.000000 0.000000 0.791360 2.409801 1.834621 -3.418362 -2.152714 -4.189054 2.413853 1.710739 -2.043166 -0.271079 -1.728397 -2.117189 7.740149 -8.719168 -24.276727 23.716541 -14.940737 -21.526698 3.462312 -18.507112 -23.656421 14.012320 -4.821175 -18.592629 -18.160549 -11.443865 23.590911 -36.610743 19.861704 -23.112818 -6.555352 16.440209 -27.633884 -6.118052 5.577097 -15.457039 19.185631 17.472463 -15.771370 
-0.448926 0.548248 0.970920 90.131589 -1.382417 86.235941 12.731172 4.273081 -4.811090 -2.914911 -16.329049 12.255735 -6.242753 16.979240 -16.871925 0.000000 -0.000000 0.000000 -0.851630 -5.676727 -3.051684 -1.027211 2.883544 19.354430 1.206216 -22.209525 -29.639582 0.000000 -0.000000 0.000000 0.825694 2.125159 2.407491 -3.353115 -2.116235 -4.469001 2.556446 1.700806 -1.708201 -0.528804 -1.838258 -3.521393 7.847851 -9.338696 -24.629573 23.183552 -14.352352 -21.385264 3.407318 -17.694530 -23.131487 13.775746 -4.931651 -18.423752 -18.245303 -11.032889 22.846330 -35.041041 19.844458 -22.057713 -5.493421 14.779337 -26.053567 -5.396257 13.346782 -16.234105 20.099958 19.330406 -19.851259 
-0.452708 0.543838 0.971409 89.711203 -1.645138 86.717608 12.499244 4.379958 -4.478017 -1.834690 -15.790126 10.303273 -6.246504 16.792745 -15.441893 0.000000 -0.000000 0.000000 -0.633821 -5.291781 -4.097878 -1.159334 2.900247 19.723834 1.586204 -22.002841 -29.989866 0.000000 -0.000000 0.000000 0.921642 1.923256 3.272312 -3.006919 -1.933276 -5.016805 2.846344 1.513394 -1.082873 -1.346476 -1.776397 -5.079408 7.613583 -9.620234 -24.906572 22.194449 -13.857695 -21.066601 2.924874 -16.030583 -21.863761 13.811783 -5.361963 -17.138889 -17.555309 -11.703888 21.044238 -32.638714 19.664031 -20.939956 -5.035414 12.893446 -24.968258 -5.319564 27.263724 -17.155224 19.328580 21.409904 -23.231440 
-0.455826 0.540213 0.971366 89.594352 -1.865184 87.063236 12.141442 4.278651 -4.405634 -0.803582 -15.234282 9.030165 -6.028390 16.540244 -14.487273 0.000000 -0.000000 0.000000 -0.512123 -5.063590 -4.887383 -1.453757 2.573474 20.073613 1.364623 -21.655738 -30.007177 0.000000 -0.000000 0.000000 1.118095 1.624032 4.017007 -2.790113 -2.004401 -5.454054 2.965309 1.418551 -0.521681 -1.643751 -1.345850 -6.057526 7.607973 -9.769801 -25.172903 21.524829 -13.634287 -20.610984 2.758015 -14.306383 -20.826376 13.370104 -6.028986 -16.212432 -16.629543 -12.270665 19.511088 -30.841818 19.489685 -20.227077 -3.806603 11.611721 -24.215942 -7.727410 39.943711 -20.624880 17.616666 23.750961 -27.628615 
-0.458083 0.537017 0.970667 89.635547 -2.134590 87.633383 11.756441 4.059551 -4.575280 0.034470 -14.654850 7.648644 -5.700219 16.463828 -13.196979 0.000000 -0.000000 0.000000 -0.670679 -4.818527 -5.698939 -1.241119 2.216853 20.137964 1.715713 -21.455731 -30.089203 0.000000 -0.000000 0.000000 1.179113 1.566604 4.432183 -2.391641 -2.073573 -5.661920 3.230118 1.238847 -0.194313 -2.211264 -1.482585 -7.065315 7.247032 -9.786482 -24.502791 20.377727 -13.562635 -19.755858 2.592028 -12.889594 -19.812533 13.050667 -7.052903 -14.837946 -14.767691 -13.618697 16.926724 -28.967414 19.191307 -19.464077 -2.465670 11.267522 -24.149827 -13.666586 52.495113 -27.862044 13.834483 24.852939 -33.038475 
-0.460911 0.533448 0.970091 89.936860 -2.184256 88.196021 11.621530 4.290137 -4.878827 0.856513 -14.264107 6.232092 -5.605450 15.717927 -11.947600 0.000000 -0.000000 0.000000 -0.444584 -4.554959 -6.678201 -1.360045 1.664754 20.474609 2.106121 -21.364534 -30.842580 0.000000 -0.000000 0.000000 1.285211 1.263544 5.229969 -1.849895 -2.184359 -6.791528 3.647296 1.082939 0.766009 -2.960754 -1.319564 -7.609830 7.108332 -9.658077 -24.456832 19.480495 -13.209728 -18.965147 1.859411 -11.769559 -18.513571 13.122244 -8.323380 -13.432275 -13.690157 -13.640871 14.168722 -27.168415 18.855052 -18.951164 -1.074286 11.163802 -23.657416 -26.398608 64.154168 -40.910934 11.091506 25.231744 -38.905716 
-0.462948 0.531288 0.968940 90.363960 -2.503921 88.548728 11.166639 3.932941 -4.945920 1.531039 -13.839563 4.796534 -5.478803 15.479923 -10.591961 0.000000 -0.000000 0.000000 -0.774620 -4.420975 -7.364533 -1.263369 0.980441 20.759570 2.067811 -21.109314 -30.496400 0.000000 -0.000000 0.000000 1.345907 1.178633 6.116829 -1.393766 -2.273887 -7.096044 3.872169 0.847358 1.043604 -3.628066 -1.546246 -8.675775 6.786857 -9.481961 -23.439369 18.557570 -13.289416 -18.086300 1.618998 -10.576774 -17.013400 12.614573 -9.278410 -11.832816 -10.686197 -15.301505 10.746452 -25.571510 18.302716 -18.682456 -0.189558 11.088863 -23.000192 -52.434167 73.938857 -68.282486 6.642246 25.765882 -44.359043 
-0.465751 0.529000 0.967714 91.093077 -2.665137 88.788900 10.999361 3.763188 -5.434549 1.760309 -13.888613 4.154533 -5.360294 15.074912 -9.862396 0.000000 -0.000000 0.000000 -0.813463 -4.303161 -7.996858 -1.434931 0.158027 21.185271 1.793574 -21.229094 -30.303456 0.000000 -0.000000 0.000000 1.490645 0.990334 7.188731 -0.910271 -2.372732 -7.572114 4.137912 0.499491 1.794860 -4.163491 -1.605352 -9.906632 6.318268 -9.307624 -23.325668 18.195940 -13.609912 -17.738357 1.025184 -8.979837 -15.409413 12.466764 -10.124814 -10.221496 -7.295586 -16.664991 6.976626 -24.490653 18.009343 -19.139466 0.581136 10.664691 -21.753140 -102.716139 75.845037 -119.120619 1.031161 25.818758 -50.838247 
